<svg width="1920" height="1080" viewBox="0 0 1920 1080" fill="none" xmlns="http://www.w3.org/2000/svg">
<rect width="1920" height="1080" fill="#4C94AC"/>
<path d="M160 240L0 120V360L160 240Z" fill="url(#paint0_linear_2_122)"/>
<path d="M160 480L0 360V600L160 480Z" fill="url(#paint1_linear_2_122)"/>
<path d="M160 720L0 600V840L160 720Z" fill="url(#paint2_linear_2_122)"/>
<path d="M160 960L0 840V1080L160 960Z" fill="url(#paint3_linear_2_122)"/>
<path d="M160 3.05176e-05L0 0V120L160 3.05176e-05Z" fill="url(#paint4_linear_2_122)"/>
<path d="M480 240L320 120V360L480 240Z" fill="url(#paint5_linear_2_122)"/>
<path d="M480 480L320 360V600L480 480Z" fill="url(#paint6_linear_2_122)"/>
<path d="M480 720L320 600V840L480 720Z" fill="url(#paint7_linear_2_122)"/>
<path d="M480 960L320 840V1080L480 960Z" fill="url(#paint8_linear_2_122)"/>
<path d="M480 3.05176e-05L320 0V120L480 3.05176e-05Z" fill="url(#paint9_linear_2_122)"/>
<path d="M800 240L640 120V360L800 240Z" fill="url(#paint10_linear_2_122)"/>
<path d="M800 480L640 360V600L800 480Z" fill="url(#paint11_linear_2_122)"/>
<path d="M800 720L640 600V840L800 720Z" fill="url(#paint12_linear_2_122)"/>
<path d="M800 960L640 840V1080L800 960Z" fill="url(#paint13_linear_2_122)"/>
<path d="M800 3.05176e-05L640 0V120L800 3.05176e-05Z" fill="url(#paint14_linear_2_122)"/>
<path d="M1120 240L960 120V360L1120 240Z" fill="url(#paint15_linear_2_122)"/>
<path d="M1120 480L960 360V600L1120 480Z" fill="url(#paint16_linear_2_122)"/>
<path d="M1120 720L960 600V840L1120 720Z" fill="url(#paint17_linear_2_122)"/>
<path d="M1120 960L960 840V1080L1120 960Z" fill="url(#paint18_linear_2_122)"/>
<path d="M1120 3.05176e-05L960 0V120L1120 3.05176e-05Z" fill="url(#paint19_linear_2_122)"/>
<path d="M1440 240L1280 120V360L1440 240Z" fill="url(#paint20_linear_2_122)"/>
<path d="M1440 480L1280 360V600L1440 480Z" fill="url(#paint21_linear_2_122)"/>
<path d="M1440 720L1280 600V840L1440 720Z" fill="url(#paint22_linear_2_122)"/>
<path d="M1440 960L1280 840V1080L1440 960Z" fill="url(#paint23_linear_2_122)"/>
<path d="M1440 3.05176e-05L1280 0V120L1440 3.05176e-05Z" fill="url(#paint24_linear_2_122)"/>
<path d="M1760 240L1600 120V360L1760 240Z" fill="url(#paint25_linear_2_122)"/>
<path d="M1760 480L1600 360V600L1760 480Z" fill="url(#paint26_linear_2_122)"/>
<path d="M1760 720L1600 600V840L1760 720Z" fill="url(#paint27_linear_2_122)"/>
<path d="M1760 960L1600 840V1080L1760 960Z" fill="url(#paint28_linear_2_122)"/>
<path d="M1760 3.05176e-05L1600 0V120L1760 3.05176e-05Z" fill="url(#paint29_linear_2_122)"/>
<path d="M320 840L160 960V720L320 840Z" fill="url(#paint30_linear_2_122)"/>
<path d="M320 600L160 720V480L320 600Z" fill="url(#paint31_linear_2_122)"/>
<path d="M320 360L160 480V240L320 360Z" fill="url(#paint32_linear_2_122)"/>
<path d="M320 120L160 240V3.05176e-05L320 120Z" fill="url(#paint33_linear_2_122)"/>
<path d="M320 1080H160V960L320 1080Z" fill="url(#paint34_linear_2_122)"/>
<path d="M640 840L480 960V720L640 840Z" fill="url(#paint35_linear_2_122)"/>
<path d="M640 600L480 720V480L640 600Z" fill="url(#paint36_linear_2_122)"/>
<path d="M640 360L480 480V240L640 360Z" fill="url(#paint37_linear_2_122)"/>
<path d="M640 120L480 240V3.05176e-05L640 120Z" fill="url(#paint38_linear_2_122)"/>
<path d="M640 1080H480V960L640 1080Z" fill="url(#paint39_linear_2_122)"/>
<path d="M960 840L800 960V720L960 840Z" fill="url(#paint40_linear_2_122)"/>
<path d="M960 600L800 720V480L960 600Z" fill="url(#paint41_linear_2_122)"/>
<path d="M960 360L800 480V240L960 360Z" fill="url(#paint42_linear_2_122)"/>
<path d="M960 120L800 240V3.05176e-05L960 120Z" fill="url(#paint43_linear_2_122)"/>
<path d="M960 1080H800V960L960 1080Z" fill="url(#paint44_linear_2_122)"/>
<path d="M1280 840L1120 960V720L1280 840Z" fill="url(#paint45_linear_2_122)"/>
<path d="M1280 600L1120 720V480L1280 600Z" fill="url(#paint46_linear_2_122)"/>
<path d="M1280 360L1120 480V240L1280 360Z" fill="url(#paint47_linear_2_122)"/>
<path d="M1280 120L1120 240V3.05176e-05L1280 120Z" fill="url(#paint48_linear_2_122)"/>
<path d="M1280 1080H1120V960L1280 1080Z" fill="url(#paint49_linear_2_122)"/>
<path d="M1600 840L1440 960V720L1600 840Z" fill="url(#paint50_linear_2_122)"/>
<path d="M1600 600L1440 720V480L1600 600Z" fill="url(#paint51_linear_2_122)"/>
<path d="M1600 360L1440 480V240L1600 360Z" fill="url(#paint52_linear_2_122)"/>
<path d="M1600 120L1440 240V3.05176e-05L1600 120Z" fill="url(#paint53_linear_2_122)"/>
<path d="M1600 1080H1440V960L1600 1080Z" fill="url(#paint54_linear_2_122)"/>
<path d="M1920 840L1760 960V720L1920 840Z" fill="url(#paint55_linear_2_122)"/>
<path d="M1920 600L1760 720V480L1920 600Z" fill="url(#paint56_linear_2_122)"/>
<path d="M1920 360L1760 480V240L1920 360Z" fill="url(#paint57_linear_2_122)"/>
<path d="M1920 120L1760 240V3.05176e-05L1920 120Z" fill="url(#paint58_linear_2_122)"/>
<path d="M1920 1080H1760V960L1920 1080Z" fill="url(#paint59_linear_2_122)"/>
<path d="M767.107 646H802.873V811.922C784.526 815.413 771.055 816.81 756.424 816.81C712.76 816.808 690 797.026 690 759.083C690 722.539 714.155 698.798 751.546 698.798C757.351 698.798 761.764 699.262 767.107 700.659V646ZM767.107 729.52C762.927 728.125 759.443 727.659 755.031 727.659C736.915 727.659 726.463 738.833 726.463 758.383C726.463 777.472 736.451 787.946 754.798 787.946C758.745 787.946 761.998 787.713 767.107 787.016V729.52Z" fill="white"/>
<path d="M859.771 701.357V784.453C859.771 813.084 857.681 826.816 851.411 838.688C845.604 850.096 837.939 857.31 822.147 865.225L788.935 849.396C804.728 841.948 812.392 835.433 817.269 825.42C822.379 815.179 824.006 803.307 824.006 772.117V701.357H859.771ZM824.006 646.191H859.771V682.968H824.006V646.191Z" fill="white"/>
<path d="M881.375 709.503C897.17 702.057 912.265 698.798 928.755 698.798C947.102 698.798 959.178 703.685 964.521 713.229C967.539 718.582 968.468 725.565 968.468 740.464V813.317C952.441 815.645 932.237 817.275 917.374 817.275C887.414 817.275 873.942 806.797 873.942 783.522C873.942 758.382 891.825 746.745 935.721 743.019V735.106C935.721 728.589 932.47 726.263 923.412 726.263C910.175 726.263 895.31 729.987 881.373 737.204V709.503H881.375ZM937.347 766.531C913.657 768.859 905.993 772.584 905.993 781.894C905.993 788.877 910.407 792.135 920.16 792.135C925.503 792.135 930.379 791.671 937.347 790.508V766.531Z" fill="white"/>
<path d="M985.888 706.943C1007.02 701.357 1024.44 698.798 1042.09 698.798C1060.44 698.798 1073.68 702.986 1081.58 711.134C1089.01 718.813 1091.33 727.192 1091.33 745.119V815.412H1055.56V746.515C1055.56 732.783 1050.92 727.659 1038.14 727.659C1033.27 727.659 1028.86 728.125 1021.65 730.22V815.412H985.888V706.943Z" fill="white"/>
<path d="M1105.23 834.966C1117.78 841.483 1130.32 844.507 1143.55 844.507C1167.01 844.507 1177 834.966 1177 812.153C1177 811.921 1177 811.688 1177 811.455C1170.03 814.945 1163.06 816.343 1153.77 816.343C1122.42 816.343 1102.44 795.627 1102.44 762.807C1102.44 722.07 1131.94 699.03 1184.19 699.03C1199.52 699.03 1213.69 700.657 1230.88 704.149L1218.63 730.005C1209.11 728.143 1217.87 729.755 1210.67 729.057V732.783L1211.14 747.91L1211.37 767.464C1211.6 772.35 1211.6 777.239 1211.83 782.127C1211.83 786.549 1211.83 788.646 1211.83 791.904C1211.83 822.63 1209.28 837.061 1201.61 848.931C1190.47 866.39 1171.19 875.002 1143.78 875.002C1129.85 875.002 1117.77 872.907 1105.23 868.018V834.966H1105.23ZM1176.3 727.892C1175.84 727.892 1175.37 727.892 1175.14 727.892H1172.59C1165.62 727.659 1157.49 729.52 1151.91 733.011C1143.32 737.9 1138.91 746.746 1138.91 759.315C1138.91 777.239 1147.74 787.48 1163.53 787.48C1168.4 787.48 1172.35 786.548 1177 785.153V782.591V772.817C1177 768.628 1176.77 763.97 1176.77 759.083L1176.54 742.558L1176.3 730.686V727.892H1176.3Z" fill="white"/>
<path d="M1286.4 698.331C1322.17 698.331 1344 720.911 1344 757.454C1344 794.931 1321.24 818.44 1285.01 818.44C1249.24 818.44 1227.18 795.86 1227.18 759.55C1227.18 721.839 1249.94 698.331 1286.4 698.331ZM1285.7 789.575C1299.41 789.575 1307.54 778.168 1307.54 758.383C1307.54 738.832 1299.64 727.193 1285.94 727.193C1271.77 727.193 1263.64 738.601 1263.64 758.383C1263.64 778.17 1271.77 789.575 1285.7 789.575Z" fill="white"/>
<path d="M1511.09 633.22C1511.1 633.335 1511.11 633.44 1511.12 633.533L1511.23 673.851H1486.94C1486.8 673.841 1486.64 673.828 1486.45 673.817C1485.97 673.788 1485.32 673.762 1484.51 673.761C1482.89 673.76 1480.64 673.861 1477.95 674.261C1472.6 675.059 1465.44 677.059 1458.27 681.881C1443.63 691.731 1430.5 712.24 1430.5 753.278C1430.5 794.083 1441.86 815.131 1454.59 825.784C1460.89 831.049 1467.23 833.518 1472.06 834.659C1474.47 835.228 1476.51 835.468 1477.98 835.564C1478.72 835.612 1479.32 835.623 1479.76 835.622C1479.98 835.621 1480.16 835.617 1480.3 835.612C1480.32 835.611 1480.35 835.61 1480.37 835.61H1511.25V866.747C1511.24 866.841 1511.23 866.945 1511.22 867.06C1511.18 867.491 1511.14 868.075 1511.13 868.789C1511.12 870.214 1511.21 872.177 1511.63 874.499C1512.46 879.166 1514.6 885.262 1519.7 891.274C1529.95 903.358 1550.98 913.855 1593.12 913.855C1633.31 913.855 1653.64 905.204 1663.82 895.15C1668.94 890.091 1671.27 884.876 1672.27 880.758C1672.76 878.721 1672.91 876.985 1672.94 875.705C1672.95 875.064 1672.93 874.535 1672.91 874.135C1672.9 874.024 1672.89 873.922 1672.88 873.831V833.504H1697.06C1697.19 833.514 1697.36 833.527 1697.55 833.538C1698.03 833.567 1698.68 833.594 1699.49 833.594C1701.11 833.595 1703.36 833.494 1706.05 833.094C1711.4 832.296 1718.56 830.296 1725.73 825.474C1740.37 815.624 1753.5 795.115 1753.5 754.077C1753.5 713.272 1742.14 692.224 1729.41 681.571C1723.11 676.306 1716.77 673.837 1711.94 672.696C1709.53 672.127 1707.49 671.887 1706.02 671.791C1705.28 671.743 1704.68 671.732 1704.24 671.733C1704.02 671.734 1703.84 671.738 1703.7 671.743C1703.68 671.744 1703.65 671.745 1703.63 671.745H1672.75V640.608C1672.76 640.514 1672.77 640.41 1672.78 640.295C1672.82 639.864 1672.86 639.281 1672.87 638.567C1672.88 637.141 1672.79 635.178 1672.37 632.856C1671.54 628.189 1669.4 622.093 1664.3 616.081C1654.05 603.997 1633.02 593.5 1590.87 593.5C1550.69 593.5 1530.36 602.151 1520.18 612.205C1515.06 617.264 1512.73 622.479 1511.73 626.597C1511.24 628.634 1511.09 630.37 1511.06 631.65C1511.05 632.291 1511.07 632.82 1511.09 633.22Z" fill="white" stroke="white" stroke-width="11"/>
<path d="M1591.16 599.172C1512.09 599.172 1517.03 633.458 1517.03 633.458L1517.12 668.979H1592.57V679.644H1487.15C1487.15 679.644 1436.56 673.906 1436.56 753.682C1436.56 833.458 1480.72 830.629 1480.72 830.629H1507.07V793.61C1507.07 793.61 1505.65 749.451 1550.52 749.451C1595.4 749.451 1625.35 749.451 1625.35 749.451C1625.35 749.451 1667.4 750.131 1667.4 708.819C1667.4 667.506 1667.4 640.51 1667.4 640.51C1667.4 640.51 1673.78 599.172 1591.16 599.172ZM1549.55 623.058C1557.06 623.058 1563.13 629.125 1563.13 636.631C1563.13 644.138 1557.06 650.205 1549.55 650.205C1542.05 650.205 1535.98 644.138 1535.98 636.631C1535.98 629.125 1542.05 623.058 1549.55 623.058Z" fill="url(#paint60_linear_2_122)"/>
<path d="M1593.4 908.992C1672.46 908.992 1667.53 874.705 1667.53 874.705L1667.44 839.184H1591.99V828.519H1697.41C1697.41 828.519 1748 834.257 1748 754.481C1748 674.706 1703.84 677.535 1703.84 677.535H1677.49V714.554C1677.49 714.554 1678.91 758.712 1634.03 758.712C1589.16 758.712 1559.2 758.712 1559.2 758.712C1559.2 758.712 1517.16 758.032 1517.16 799.345C1517.16 840.657 1517.16 867.654 1517.16 867.654C1517.16 867.654 1510.78 908.992 1593.4 908.992ZM1635 885.106C1627.5 885.106 1621.43 879.039 1621.43 871.532C1621.43 864.025 1627.5 857.958 1635 857.958C1642.51 857.958 1648.58 864.025 1648.58 871.532C1648.58 879.039 1642.51 885.106 1635 885.106Z" fill="url(#paint61_linear_2_122)"/>
<defs>
<linearGradient id="paint0_linear_2_122" x1="480" y1="1080" x2="1920" y2="-7.21216e-05" gradientUnits="userSpaceOnUse">
<stop stop-color="white" stop-opacity="0"/>
<stop offset="1" stop-color="white" stop-opacity="0.25"/>
</linearGradient>
<linearGradient id="paint1_linear_2_122" x1="480" y1="1080" x2="1920" y2="-7.21216e-05" gradientUnits="userSpaceOnUse">
<stop stop-color="white" stop-opacity="0"/>
<stop offset="1" stop-color="white" stop-opacity="0.25"/>
</linearGradient>
<linearGradient id="paint2_linear_2_122" x1="480" y1="1080" x2="1920" y2="-7.21216e-05" gradientUnits="userSpaceOnUse">
<stop stop-color="white" stop-opacity="0"/>
<stop offset="1" stop-color="white" stop-opacity="0.25"/>
</linearGradient>
<linearGradient id="paint3_linear_2_122" x1="480" y1="1080" x2="1920" y2="-7.21216e-05" gradientUnits="userSpaceOnUse">
<stop stop-color="white" stop-opacity="0"/>
<stop offset="1" stop-color="white" stop-opacity="0.25"/>
</linearGradient>
<linearGradient id="paint4_linear_2_122" x1="480" y1="1080" x2="1920" y2="-7.21216e-05" gradientUnits="userSpaceOnUse">
<stop stop-color="white" stop-opacity="0"/>
<stop offset="1" stop-color="white" stop-opacity="0.25"/>
</linearGradient>
<linearGradient id="paint5_linear_2_122" x1="480" y1="1080" x2="1920" y2="-7.21216e-05" gradientUnits="userSpaceOnUse">
<stop stop-color="white" stop-opacity="0"/>
<stop offset="1" stop-color="white" stop-opacity="0.25"/>
</linearGradient>
<linearGradient id="paint6_linear_2_122" x1="480" y1="1080" x2="1920" y2="-7.21216e-05" gradientUnits="userSpaceOnUse">
<stop stop-color="white" stop-opacity="0"/>
<stop offset="1" stop-color="white" stop-opacity="0.25"/>
</linearGradient>
<linearGradient id="paint7_linear_2_122" x1="480" y1="1080" x2="1920" y2="-7.21216e-05" gradientUnits="userSpaceOnUse">
<stop stop-color="white" stop-opacity="0"/>
<stop offset="1" stop-color="white" stop-opacity="0.25"/>
</linearGradient>
<linearGradient id="paint8_linear_2_122" x1="480" y1="1080" x2="1920" y2="-7.21216e-05" gradientUnits="userSpaceOnUse">
<stop stop-color="white" stop-opacity="0"/>
<stop offset="1" stop-color="white" stop-opacity="0.25"/>
</linearGradient>
<linearGradient id="paint9_linear_2_122" x1="480" y1="1080" x2="1920" y2="-7.21216e-05" gradientUnits="userSpaceOnUse">
<stop stop-color="white" stop-opacity="0"/>
<stop offset="1" stop-color="white" stop-opacity="0.25"/>
</linearGradient>
<linearGradient id="paint10_linear_2_122" x1="480" y1="1080" x2="1920" y2="-7.21216e-05" gradientUnits="userSpaceOnUse">
<stop stop-color="white" stop-opacity="0"/>
<stop offset="1" stop-color="white" stop-opacity="0.25"/>
</linearGradient>
<linearGradient id="paint11_linear_2_122" x1="480" y1="1080" x2="1920" y2="-7.21216e-05" gradientUnits="userSpaceOnUse">
<stop stop-color="white" stop-opacity="0"/>
<stop offset="1" stop-color="white" stop-opacity="0.25"/>
</linearGradient>
<linearGradient id="paint12_linear_2_122" x1="480" y1="1080" x2="1920" y2="-7.21216e-05" gradientUnits="userSpaceOnUse">
<stop stop-color="white" stop-opacity="0"/>
<stop offset="1" stop-color="white" stop-opacity="0.25"/>
</linearGradient>
<linearGradient id="paint13_linear_2_122" x1="480" y1="1080" x2="1920" y2="-7.21216e-05" gradientUnits="userSpaceOnUse">
<stop stop-color="white" stop-opacity="0"/>
<stop offset="1" stop-color="white" stop-opacity="0.25"/>
</linearGradient>
<linearGradient id="paint14_linear_2_122" x1="480" y1="1080" x2="1920" y2="-7.21216e-05" gradientUnits="userSpaceOnUse">
<stop stop-color="white" stop-opacity="0"/>
<stop offset="1" stop-color="white" stop-opacity="0.25"/>
</linearGradient>
<linearGradient id="paint15_linear_2_122" x1="480" y1="1080" x2="1920" y2="-7.21216e-05" gradientUnits="userSpaceOnUse">
<stop stop-color="white" stop-opacity="0"/>
<stop offset="1" stop-color="white" stop-opacity="0.25"/>
</linearGradient>
<linearGradient id="paint16_linear_2_122" x1="480" y1="1080" x2="1920" y2="-7.21216e-05" gradientUnits="userSpaceOnUse">
<stop stop-color="white" stop-opacity="0"/>
<stop offset="1" stop-color="white" stop-opacity="0.25"/>
</linearGradient>
<linearGradient id="paint17_linear_2_122" x1="480" y1="1080" x2="1920" y2="-7.21216e-05" gradientUnits="userSpaceOnUse">
<stop stop-color="white" stop-opacity="0"/>
<stop offset="1" stop-color="white" stop-opacity="0.25"/>
</linearGradient>
<linearGradient id="paint18_linear_2_122" x1="480" y1="1080" x2="1920" y2="-7.21216e-05" gradientUnits="userSpaceOnUse">
<stop stop-color="white" stop-opacity="0"/>
<stop offset="1" stop-color="white" stop-opacity="0.25"/>
</linearGradient>
<linearGradient id="paint19_linear_2_122" x1="480" y1="1080" x2="1920" y2="-7.21216e-05" gradientUnits="userSpaceOnUse">
<stop stop-color="white" stop-opacity="0"/>
<stop offset="1" stop-color="white" stop-opacity="0.25"/>
</linearGradient>
<linearGradient id="paint20_linear_2_122" x1="480" y1="1080" x2="1920" y2="-7.21216e-05" gradientUnits="userSpaceOnUse">
<stop stop-color="white" stop-opacity="0"/>
<stop offset="1" stop-color="white" stop-opacity="0.25"/>
</linearGradient>
<linearGradient id="paint21_linear_2_122" x1="480" y1="1080" x2="1920" y2="-7.21216e-05" gradientUnits="userSpaceOnUse">
<stop stop-color="white" stop-opacity="0"/>
<stop offset="1" stop-color="white" stop-opacity="0.25"/>
</linearGradient>
<linearGradient id="paint22_linear_2_122" x1="480" y1="1080" x2="1920" y2="-7.21216e-05" gradientUnits="userSpaceOnUse">
<stop stop-color="white" stop-opacity="0"/>
<stop offset="1" stop-color="white" stop-opacity="0.25"/>
</linearGradient>
<linearGradient id="paint23_linear_2_122" x1="480" y1="1080" x2="1920" y2="-7.21216e-05" gradientUnits="userSpaceOnUse">
<stop stop-color="white" stop-opacity="0"/>
<stop offset="1" stop-color="white" stop-opacity="0.25"/>
</linearGradient>
<linearGradient id="paint24_linear_2_122" x1="480" y1="1080" x2="1920" y2="-7.21216e-05" gradientUnits="userSpaceOnUse">
<stop stop-color="white" stop-opacity="0"/>
<stop offset="1" stop-color="white" stop-opacity="0.25"/>
</linearGradient>
<linearGradient id="paint25_linear_2_122" x1="480" y1="1080" x2="1920" y2="-7.21216e-05" gradientUnits="userSpaceOnUse">
<stop stop-color="white" stop-opacity="0"/>
<stop offset="1" stop-color="white" stop-opacity="0.25"/>
</linearGradient>
<linearGradient id="paint26_linear_2_122" x1="480" y1="1080" x2="1920" y2="-7.21216e-05" gradientUnits="userSpaceOnUse">
<stop stop-color="white" stop-opacity="0"/>
<stop offset="1" stop-color="white" stop-opacity="0.25"/>
</linearGradient>
<linearGradient id="paint27_linear_2_122" x1="480" y1="1080" x2="1920" y2="-7.21216e-05" gradientUnits="userSpaceOnUse">
<stop stop-color="white" stop-opacity="0"/>
<stop offset="1" stop-color="white" stop-opacity="0.25"/>
</linearGradient>
<linearGradient id="paint28_linear_2_122" x1="480" y1="1080" x2="1920" y2="-7.21216e-05" gradientUnits="userSpaceOnUse">
<stop stop-color="white" stop-opacity="0"/>
<stop offset="1" stop-color="white" stop-opacity="0.25"/>
</linearGradient>
<linearGradient id="paint29_linear_2_122" x1="480" y1="1080" x2="1920" y2="-7.21216e-05" gradientUnits="userSpaceOnUse">
<stop stop-color="white" stop-opacity="0"/>
<stop offset="1" stop-color="white" stop-opacity="0.25"/>
</linearGradient>
<linearGradient id="paint30_linear_2_122" x1="480" y1="1080" x2="1920" y2="-7.21216e-05" gradientUnits="userSpaceOnUse">
<stop stop-color="white" stop-opacity="0"/>
<stop offset="1" stop-color="white" stop-opacity="0.25"/>
</linearGradient>
<linearGradient id="paint31_linear_2_122" x1="480" y1="1080" x2="1920" y2="-7.21216e-05" gradientUnits="userSpaceOnUse">
<stop stop-color="white" stop-opacity="0"/>
<stop offset="1" stop-color="white" stop-opacity="0.25"/>
</linearGradient>
<linearGradient id="paint32_linear_2_122" x1="480" y1="1080" x2="1920" y2="-7.21216e-05" gradientUnits="userSpaceOnUse">
<stop stop-color="white" stop-opacity="0"/>
<stop offset="1" stop-color="white" stop-opacity="0.25"/>
</linearGradient>
<linearGradient id="paint33_linear_2_122" x1="480" y1="1080" x2="1920" y2="-7.21216e-05" gradientUnits="userSpaceOnUse">
<stop stop-color="white" stop-opacity="0"/>
<stop offset="1" stop-color="white" stop-opacity="0.25"/>
</linearGradient>
<linearGradient id="paint34_linear_2_122" x1="480" y1="1080" x2="1920" y2="-7.21216e-05" gradientUnits="userSpaceOnUse">
<stop stop-color="white" stop-opacity="0"/>
<stop offset="1" stop-color="white" stop-opacity="0.25"/>
</linearGradient>
<linearGradient id="paint35_linear_2_122" x1="480" y1="1080" x2="1920" y2="-7.21216e-05" gradientUnits="userSpaceOnUse">
<stop stop-color="white" stop-opacity="0"/>
<stop offset="1" stop-color="white" stop-opacity="0.25"/>
</linearGradient>
<linearGradient id="paint36_linear_2_122" x1="480" y1="1080" x2="1920" y2="-7.21216e-05" gradientUnits="userSpaceOnUse">
<stop stop-color="white" stop-opacity="0"/>
<stop offset="1" stop-color="white" stop-opacity="0.25"/>
</linearGradient>
<linearGradient id="paint37_linear_2_122" x1="480" y1="1080" x2="1920" y2="-7.21216e-05" gradientUnits="userSpaceOnUse">
<stop stop-color="white" stop-opacity="0"/>
<stop offset="1" stop-color="white" stop-opacity="0.25"/>
</linearGradient>
<linearGradient id="paint38_linear_2_122" x1="480" y1="1080" x2="1920" y2="-7.21216e-05" gradientUnits="userSpaceOnUse">
<stop stop-color="white" stop-opacity="0"/>
<stop offset="1" stop-color="white" stop-opacity="0.25"/>
</linearGradient>
<linearGradient id="paint39_linear_2_122" x1="480" y1="1080" x2="1920" y2="-7.21216e-05" gradientUnits="userSpaceOnUse">
<stop stop-color="white" stop-opacity="0"/>
<stop offset="1" stop-color="white" stop-opacity="0.25"/>
</linearGradient>
<linearGradient id="paint40_linear_2_122" x1="480" y1="1080" x2="1920" y2="-7.21216e-05" gradientUnits="userSpaceOnUse">
<stop stop-color="white" stop-opacity="0"/>
<stop offset="1" stop-color="white" stop-opacity="0.25"/>
</linearGradient>
<linearGradient id="paint41_linear_2_122" x1="480" y1="1080" x2="1920" y2="-7.21216e-05" gradientUnits="userSpaceOnUse">
<stop stop-color="white" stop-opacity="0"/>
<stop offset="1" stop-color="white" stop-opacity="0.25"/>
</linearGradient>
<linearGradient id="paint42_linear_2_122" x1="480" y1="1080" x2="1920" y2="-7.21216e-05" gradientUnits="userSpaceOnUse">
<stop stop-color="white" stop-opacity="0"/>
<stop offset="1" stop-color="white" stop-opacity="0.25"/>
</linearGradient>
<linearGradient id="paint43_linear_2_122" x1="480" y1="1080" x2="1920" y2="-7.21216e-05" gradientUnits="userSpaceOnUse">
<stop stop-color="white" stop-opacity="0"/>
<stop offset="1" stop-color="white" stop-opacity="0.25"/>
</linearGradient>
<linearGradient id="paint44_linear_2_122" x1="480" y1="1080" x2="1920" y2="-7.21216e-05" gradientUnits="userSpaceOnUse">
<stop stop-color="white" stop-opacity="0"/>
<stop offset="1" stop-color="white" stop-opacity="0.25"/>
</linearGradient>
<linearGradient id="paint45_linear_2_122" x1="480" y1="1080" x2="1920" y2="-7.21216e-05" gradientUnits="userSpaceOnUse">
<stop stop-color="white" stop-opacity="0"/>
<stop offset="1" stop-color="white" stop-opacity="0.25"/>
</linearGradient>
<linearGradient id="paint46_linear_2_122" x1="480" y1="1080" x2="1920" y2="-7.21216e-05" gradientUnits="userSpaceOnUse">
<stop stop-color="white" stop-opacity="0"/>
<stop offset="1" stop-color="white" stop-opacity="0.25"/>
</linearGradient>
<linearGradient id="paint47_linear_2_122" x1="480" y1="1080" x2="1920" y2="-7.21216e-05" gradientUnits="userSpaceOnUse">
<stop stop-color="white" stop-opacity="0"/>
<stop offset="1" stop-color="white" stop-opacity="0.25"/>
</linearGradient>
<linearGradient id="paint48_linear_2_122" x1="480" y1="1080" x2="1920" y2="-7.21216e-05" gradientUnits="userSpaceOnUse">
<stop stop-color="white" stop-opacity="0"/>
<stop offset="1" stop-color="white" stop-opacity="0.25"/>
</linearGradient>
<linearGradient id="paint49_linear_2_122" x1="480" y1="1080" x2="1920" y2="-7.21216e-05" gradientUnits="userSpaceOnUse">
<stop stop-color="white" stop-opacity="0"/>
<stop offset="1" stop-color="white" stop-opacity="0.25"/>
</linearGradient>
<linearGradient id="paint50_linear_2_122" x1="480" y1="1080" x2="1920" y2="-7.21216e-05" gradientUnits="userSpaceOnUse">
<stop stop-color="white" stop-opacity="0"/>
<stop offset="1" stop-color="white" stop-opacity="0.25"/>
</linearGradient>
<linearGradient id="paint51_linear_2_122" x1="480" y1="1080" x2="1920" y2="-7.21216e-05" gradientUnits="userSpaceOnUse">
<stop stop-color="white" stop-opacity="0"/>
<stop offset="1" stop-color="white" stop-opacity="0.25"/>
</linearGradient>
<linearGradient id="paint52_linear_2_122" x1="480" y1="1080" x2="1920" y2="-7.21216e-05" gradientUnits="userSpaceOnUse">
<stop stop-color="white" stop-opacity="0"/>
<stop offset="1" stop-color="white" stop-opacity="0.25"/>
</linearGradient>
<linearGradient id="paint53_linear_2_122" x1="480" y1="1080" x2="1920" y2="-7.21216e-05" gradientUnits="userSpaceOnUse">
<stop stop-color="white" stop-opacity="0"/>
<stop offset="1" stop-color="white" stop-opacity="0.25"/>
</linearGradient>
<linearGradient id="paint54_linear_2_122" x1="480" y1="1080" x2="1920" y2="-7.21216e-05" gradientUnits="userSpaceOnUse">
<stop stop-color="white" stop-opacity="0"/>
<stop offset="1" stop-color="white" stop-opacity="0.25"/>
</linearGradient>
<linearGradient id="paint55_linear_2_122" x1="480" y1="1080" x2="1920" y2="-7.21216e-05" gradientUnits="userSpaceOnUse">
<stop stop-color="white" stop-opacity="0"/>
<stop offset="1" stop-color="white" stop-opacity="0.25"/>
</linearGradient>
<linearGradient id="paint56_linear_2_122" x1="480" y1="1080" x2="1920" y2="-7.21216e-05" gradientUnits="userSpaceOnUse">
<stop stop-color="white" stop-opacity="0"/>
<stop offset="1" stop-color="white" stop-opacity="0.25"/>
</linearGradient>
<linearGradient id="paint57_linear_2_122" x1="480" y1="1080" x2="1920" y2="-7.21216e-05" gradientUnits="userSpaceOnUse">
<stop stop-color="white" stop-opacity="0"/>
<stop offset="1" stop-color="white" stop-opacity="0.25"/>
</linearGradient>
<linearGradient id="paint58_linear_2_122" x1="480" y1="1080" x2="1920" y2="-7.21216e-05" gradientUnits="userSpaceOnUse">
<stop stop-color="white" stop-opacity="0"/>
<stop offset="1" stop-color="white" stop-opacity="0.25"/>
</linearGradient>
<linearGradient id="paint59_linear_2_122" x1="480" y1="1080" x2="1920" y2="-7.21216e-05" gradientUnits="userSpaceOnUse">
<stop stop-color="white" stop-opacity="0"/>
<stop offset="1" stop-color="white" stop-opacity="0.25"/>
</linearGradient>
<linearGradient id="paint60_linear_2_122" x1="1466.49" y1="626.253" x2="1620.49" y2="780.767" gradientUnits="userSpaceOnUse">
<stop stop-color="#387EB8"/>
<stop offset="1" stop-color="#366994"/>
</linearGradient>
<linearGradient id="paint61_linear_2_122" x1="1561.22" y1="724.547" x2="1726.62" y2="883.005" gradientUnits="userSpaceOnUse">
<stop stop-color="#FFE052"/>
<stop offset="1" stop-color="#FFC331"/>
</linearGradient>
</defs>
</svg>
